# xmcd
#
# Track frame offsets:
#	150
#	23775
#	43240
#	62450
#	85570
#	118120
#	144500
#	158385
#	163305
#	177900
#
# Disc length: 2701 seconds
#
# Revision: 0
# Processed by: cddbd v1.5.1PL2 Copyright (c) Steve Scherf et al.
# Submitted via: EasyCDDAExtractor 8.0.2.1
#
DISCID=790a8b0a
DTITLE=Black Sabbath - University Of Maryland  Ritchie Coliseum College Park 1
DTITLE=6-02-94 Disc 2
DYEAR=1994
DGENRE=Hard Rock
TTITLE0=Neon Knights
TTITLE1=Immaculate Deception
TTITLE2=The Wizard
TTITLE3=Cross Of Thorns
TTITLE4=Symptom Of The Universe
TTITLE5=Headless Cross
TTITLE6=Paranoid
TTITLE7=Heaven and Hell Reprise
TTITLE8=Iron Man
TTITLE9=Sabbath Bloody Sabbath
EXTD=
EXTT0=
EXTT1=
EXTT2=
EXTT3=
EXTT4=
EXTT5=
EXTT6=
EXTT7=
EXTT8=
EXTT9=
PLAYORDER=
